<svg width="24" height="24" viewBox="0 0 24 24" fill="none" xmlns="http://www.w3.org/2000/svg">
<mask id="mask0_1516_249306" style="mask-type:alpha" maskUnits="userSpaceOnUse" x="3" y="1" width="18" height="21">
<path opacity="0.85" d="M3 19C3 15.6863 5.68629 13 9 13H15C18.3137 13 21 15.6863 21 19V22H3V19Z" fill="black"/>
<path d="M7 1H13.7273C15.5347 1 17 2.46525 17 4.27273V6.72727C17 9.43849 14.8021 11.6364 12.0909 11.6364H11.9091C9.19788 11.6364 7 9.43849 7 6.72727V1Z" fill="url(#paint0_linear_1516_249306)"/>
<path fill-rule="evenodd" clip-rule="evenodd" d="M7 5V6C7 7.933 8.567 9.5 10.5 9.5H14.5V9C14.5 8.17157 13.8284 7.5 13 7.5H10.5C9.67157 7.5 9 6.82843 9 6V5H14C15.2645 5 16.3462 4.21768 16.7877 3.11066C16.3197 1.87877 15.1292 1.00273 13.7338 1H8H7V2V5Z" fill="url(#paint1_linear_1516_249306)"/>
</mask>
<g mask="url(#mask0_1516_249306)">
<path d="M0 0H24V24H0V0Z" fill="#41414D"/>
</g>
<defs>
<linearGradient id="paint0_linear_1516_249306" x1="16" y1="2" x2="8.5" y2="10" gradientUnits="userSpaceOnUse">
<stop stop-opacity="0.3"/>
<stop offset="1" stop-opacity="0.2"/>
</linearGradient>
<linearGradient id="paint1_linear_1516_249306" x1="9.5" y1="7" x2="17" y2="2.5" gradientUnits="userSpaceOnUse">
<stop/>
<stop offset="1" stop-opacity="0.5"/>
</linearGradient>
</defs>
</svg>
